<?xml version="1.0" encoding="UTF-8"?>
<!DOCTYPE svg PUBLIC "-//W3C//DTD SVG 1.1//EN" "http://www.w3.org/Graphics/SVG/1.1/DTD/svg11.dtd">
<!-- Creator: CorelDRAW X7 -->
<svg xmlns="http://www.w3.org/2000/svg" xml:space="preserve" width="10.8839in" height="10.439in" version="1.1" style="shape-rendering:geometricPrecision; text-rendering:geometricPrecision; image-rendering:optimizeQuality; fill-rule:evenodd; clip-rule:evenodd"
viewBox="0 0 10884 10439"
 xmlns:xlink="http://www.w3.org/1999/xlink">
 <defs>
  <style type="text/css">
   <![CDATA[
    .fil5 {fill:none}
    .fil4 {fill:#FEFEFE;fill-opacity:0.231373}
    .fil3 {fill:#33ABFC;fill-opacity:0.400000}
    .fil2 {fill:#8753F1;fill-opacity:0.400000}
    .fil1 {fill:#96E0FF;fill-opacity:0.400000}
    .fil0 {fill:url(#id1)}
   ]]>
  </style>
   <clipPath id="id0">
    <path d="M0 0l10884 0 0 10439 -10884 0 0 -10439z"/>
   </clipPath>
  <linearGradient id="id1" gradientUnits="userSpaceOnUse" x1="-225.988" y1="9664.56" x2="11109.8" y2="774.413">
   <stop offset="0" style="stop-opacity:1; stop-color:#D10B96"/>
   <stop offset="0.301961" style="stop-opacity:1; stop-color:#7A87F5"/>
   <stop offset="1" style="stop-opacity:1; stop-color:#B56FDB"/>
  </linearGradient>
 </defs>
 <g id="Layer_x0020_1">
  <metadata id="CorelCorpID_0Corel-Layer"/>
  <polygon class="fil0" points="0,0 10884,0 10884,10439 0,10439 "/>
  <g style="clip-path:url(#id0)">
   <g id="_2249135654352">
    <g>
     <path id="1" class="fil1" d="M1726 -6536l-2685 10019c1769,-2649 2875,-4098 5052,-2533 382,275 982,1210 2299,299 3435,-2379 1199,-877 4863,-760 130,4 605,-242 660,-223l-10189 -6802z"/>
     <path class="fil1" d="M1341 -5959l-2685 10020c1769,-2650 2875,-4098 5052,-2534 382,275 982,1211 2299,299 3435,-2379 1198,-877 4862,-760 131,5 606,-242 660,-223l-10188 -6802z"/>
    </g>
    <g>
     <path class="fil2" d="M19521 8980l-9986 -14739c1244,5252 1741,8301 -3243,9321 -874,179 -2929,-110 -3435,2604 -1320,7078 -397,2522 -5388,7077 -178,163 -472,1048 -569,1096l22621 -5359z"/>
     <path class="fil2" d="M19250 7836l-9986 -14739c1244,5252 1741,8301 -3243,9321 -874,178 -2929,-110 -3435,2604 -1320,7078 -397,2522 -5388,7077 -178,162 -472,1048 -569,1096l22621 -5359z"/>
    </g>
    <g>
     <path class="fil3" d="M-9456 6268l9987 -14739c-1245,5252 -1742,8301 3243,9321 874,179 2928,-110 3434,2604 1320,7078 398,2522 5389,7077 178,162 471,1048 568,1096l-22621 -5359z"/>
     <path class="fil3" d="M-9184 5123l9986 -14738c-1244,5252 -1742,8301 3243,9320 874,179 2929,-109 3434,2604 1320,7079 398,2523 5389,7078 178,162 472,1048 569,1096l-22621 -5360z"/>
    </g>
    <path class="fil4" d="M7713 4959c284,0 514,230 514,514 0,284 -230,515 -514,515 -284,0 -514,-231 -514,-515 0,-284 230,-514 514,-514z"/>
    <path class="fil4" d="M102 4276c92,0 166,74 166,166 0,91 -74,165 -166,165 -91,0 -165,-74 -165,-165 0,-92 74,-166 165,-166z"/>
    <path class="fil4" d="M6752 566c233,0 422,189 422,422 0,233 -189,423 -422,423 -233,0 -423,-190 -423,-423 0,-233 190,-422 423,-422z"/>
    <path class="fil4" d="M7928 3027c131,0 238,107 238,239 0,132 -107,239 -238,239 -132,0 -239,-107 -239,-239 0,-132 107,-239 239,-239z"/>
    <path class="fil4" d="M4100 8186c81,0 147,66 147,147 0,81 -66,147 -147,147 -81,0 -147,-66 -147,-147 0,-81 66,-147 147,-147z"/>
    <path class="fil4" d="M1182 7303c71,0 129,57 129,128 0,71 -58,129 -129,129 -71,0 -129,-58 -129,-129 0,-71 58,-128 129,-128z"/>
    <path class="fil4" d="M855 382c284,0 515,230 515,514 0,284 -231,515 -515,515 -284,0 -514,-231 -514,-515 0,-284 230,-514 514,-514z"/>
    <path class="fil4" d="M1241 3468c71,0 129,58 129,129 0,71 -58,128 -129,128 -71,0 -128,-57 -128,-128 0,-71 57,-129 128,-129z"/>
    <path class="fil4" d="M9880 3103c-121,0 -220,-99 -220,-221 0,-121 99,-220 220,-220 122,0 221,99 221,220 0,122 -99,221 -221,221z"/>
    <path class="fil4" d="M-364 5366c548,0 993,445 993,994 0,549 -445,993 -993,993 -549,0 -994,-444 -994,-993 0,-549 445,-994 994,-994z"/>
    <path class="fil4" d="M12656 4579c71,0 128,58 128,129 0,71 -57,128 -128,128 -71,0 -129,-57 -129,-128 0,-71 58,-129 129,-129z"/>
    <path class="fil4" d="M9048 492c122,0 220,99 220,221 0,121 -98,220 -220,220 -122,0 -220,-99 -220,-220 0,-122 98,-221 220,-221z"/>
    <path class="fil4" d="M5337 -647c122,0 221,99 221,221 0,121 -99,220 -221,220 -121,0 -220,-99 -220,-220 0,-122 99,-221 220,-221z"/>
    <path class="fil4" d="M3537 2680c284,0 515,230 515,514 0,284 -231,514 -515,514 -284,0 -514,-230 -514,-514 0,-284 230,-514 514,-514z"/>
    <path class="fil4" d="M7464 8382c91,0 165,74 165,165 0,91 -74,165 -165,165 -91,0 -165,-74 -165,-165 0,-91 74,-165 165,-165z"/>
    <path class="fil4" d="M11933 2398c234,0 423,190 423,423 0,233 -189,422 -423,422 -233,0 -422,-189 -422,-422 0,-233 189,-423 422,-423z"/>
    <path class="fil4" d="M8965 8272c132,0 239,107 239,239 0,132 -107,239 -239,239 -131,0 -238,-107 -238,-239 0,-132 107,-239 238,-239z"/>
    <path class="fil4" d="M11364 6035c81,0 147,66 147,147 0,82 -66,147 -147,147 -81,0 -147,-65 -147,-147 0,-81 66,-147 147,-147z"/>
    <path class="fil4" d="M8186 1737c71,0 129,58 129,129 0,71 -58,128 -129,128 -71,0 -128,-57 -128,-128 0,-71 57,-129 128,-129z"/>
    <path class="fil4" d="M6037 2215c284,0 514,230 514,514 0,284 -230,514 -514,514 -284,0 -514,-230 -514,-514 0,-284 230,-514 514,-514z"/>
    <path class="fil4" d="M1955 8330c71,0 129,58 129,129 0,71 -58,128 -129,128 -71,0 -128,-57 -128,-128 0,-71 57,-129 128,-129z"/>
    <path class="fil4" d="M4199 1982c-122,0 -221,-99 -221,-221 0,-122 99,-220 221,-220 121,0 220,98 220,220 0,122 -99,221 -220,221z"/>
    <path class="fil4" d="M3318 6513c163,0 294,132 294,294 0,162 -131,294 -294,294 -162,0 -294,-132 -294,-294 0,-162 132,-294 294,-294z"/>
    <path class="fil4" d="M5538 8485c549,0 994,445 994,994 0,548 -445,993 -994,993 -548,0 -993,-445 -993,-993 0,-549 445,-994 993,-994z"/>
    <path class="fil4" d="M11590 8002c629,0 1139,510 1139,1139 0,629 -510,1139 -1139,1139 -629,0 -1139,-510 -1139,-1139 0,-629 510,-1139 1139,-1139z"/>
    <path class="fil4" d="M10086 5737c122,0 220,99 220,221 0,121 -98,220 -220,220 -122,0 -221,-99 -221,-220 0,-122 99,-221 221,-221z"/>
    <path class="fil4" d="M10519 1186c122,0 220,99 220,220 0,122 -98,221 -220,221 -122,0 -220,-99 -220,-221 0,-121 98,-220 220,-220z"/>
   </g>
  </g>
  <polygon class="fil5" points="0,0 10884,0 10884,10439 0,10439 "/>
 </g>
</svg>
